<?xml version="1.0" encoding="UTF-8"?>
<svg id="Layer_1" xmlns="http://www.w3.org/2000/svg" version="1.1" viewBox="0 0 176 176">
  <!-- Generator: Adobe Illustrator 30.2.1, SVG Export Plug-In . SVG Version: 2.1.1 Build 1)  -->
  <defs>
    <style>
      .st0 {
        fill: #f26522;
      }
    </style>
  </defs>
  <path class="st0" d="M97.5,166.6v-7.4c0-6.9,3.7-13.2,9.6-16.6l19.1-11c10-5.7,16-16.3,16-27.8v-22.2c0-6.9-3.6-13.1-9.6-16.6s-13.2-3.4-19.2,0l-16.1,9.3c-11.9,6.9-19.1,19.5-19.1,33.1v59.2c0,2.4-1.3,4.4-3.3,5.6s-4.4,1.2-6.4,0l-6.4-3.7c-5.9-3.4-9.5-9.7-9.5-16.5v-59.4c0-13.7,7.3-26.3,19.2-33.1l25.5-14.7c2-1.2,3.3-3.3,3.3-5.6s-1.2-4.4-3.2-5.6c-5.9-3.4-13.2-3.4-19.2,0l-25.6,14.9c-11.9,6.9-19.1,19.5-19.1,33.1v59.2c0,2.4-1.3,4.4-3.3,5.6s-4.4,1.2-6.4,0l-6.4-3.7c-5.9-3.3-9.5-9.6-9.5-16.5v-59.3c0-13.8,7.4-26.4,19.4-33.3l41.4-23.9c11.9-6.9,26.5-6.9,38.4,0l41.4,23.9c11.9,6.9,19.3,19.6,19.3,33.3v48c0,13.6-7.1,26.2-19,33l-41.7,24.1c-2,1.2-4.4,1.2-6.4,0s-3.2-3.3-3.2-5.5h0Z"/>
  <path class="st0" d="M97.5,112.3v-3.7c0-8.1,4.3-15.6,11.3-19.5l3-1.7c2.4-1.4,5.2-1.4,7.5,0,2.4,1.4,3.8,3.8,3.8,6.5v3.5c0,8.1-4.3,15.5-11.2,19.5l-3.3,1.9c-2.3,1.4-5.1,1.4-7.4,0s-3.7-3.8-3.7-6.4h0Z"/>
</svg>