<?xml version="1.0" encoding="UTF-8"?>
<svg id="Layer_1" xmlns="http://www.w3.org/2000/svg" version="1.1" viewBox="0 0 815.4 186.3">
  <!-- Generator: Adobe Illustrator 30.2.1, SVG Export Plug-In . SVG Version: 2.1.1 Build 1)  -->
  <defs>
    <style>
      .st0 {
        fill: #fd640b;
      }

      .st1 {
        fill: #231f20;
      }
    </style>
  </defs>
  <g>
    <path class="st0" d="M99,179.1v-8.2c0-7.6,4.1-14.6,10.6-18.4l21.1-12.2c11-6.3,17.7-18,17.7-30.7v-24.5c0-7.6-4-14.5-10.6-18.3s-14.6-3.8-21.2,0l-17.8,10.3c-13.1,7.6-21.1,21.5-21.1,36.6v65.4c0,2.6-1.4,4.9-3.6,6.2-2.2,1.3-4.9,1.3-7.1,0l-7.1-4.1c-6.5-3.8-10.5-10.7-10.5-18.2v-65.7c0-15.1,8.1-29.1,21.2-36.6l28.2-16.3c2.2-1.3,3.6-3.6,3.6-6.2,0-2.5-1.3-4.9-3.5-6.2-6.5-3.8-14.6-3.8-21.2,0l-28.3,16.5c-13.1,7.6-21.1,21.5-21.1,36.6v65.4c0,2.6-1.4,4.9-3.6,6.2s-4.9,1.3-7.1,0l-7.1-4.1C4,148.9,0,142,0,134.4v-65.5c0-15.2,8.2-29.2,21.4-36.8L67.2,5.7c13.1-7.6,29.3-7.6,42.4,0l45.8,26.4c13.2,7.6,21.3,21.7,21.3,36.8v53.1c0,15-7.9,29-21,36.5l-46.1,26.6c-2.2,1.3-4.9,1.3-7.1,0-2.2-1.3-3.5-3.6-3.5-6.1h0c0,0,0,0,0,0Z"/>
    <path class="st0" d="M99,119.1v-4.1c0-8.9,4.8-17.2,12.5-21.6l3.3-1.9c2.6-1.5,5.7-1.5,8.3,0,2.6,1.5,4.2,4.2,4.2,7.2v3.9c0,8.9-4.7,17.1-12.4,21.5l-3.7,2.1c-2.5,1.5-5.6,1.5-8.2,0s-4.1-4.2-4.1-7.1h0Z"/>
  </g>
  <g>
    <path class="st1" d="M320.1,47.3v18.7h-34.1c-8.6,0-12.5,4-12.5,12.5v65.7h-19.4v-68.6c0-19.5,7.2-28.3,26.2-28.3,0,0,39.8,0,39.8,0Z"/>
    <path class="st1" d="M358.6,5.3v42h34.1c32.7,0,48.8,15.8,48.8,42.4v54.5h-19.6v-54.5c0-14.9-9-23.7-29.2-23.7h-34.1v78.2h-19.5V5.3h19.5Z"/>
    <path class="st1" d="M526.7,47.3c25.7,0,42,15.8,42,48.4s-16.3,48.4-42,48.4h-20.4c-25.9,0-42-15.8-42-48.4s16.1-48.4,42-48.4c0,0,20.4,0,20.4,0ZM508.2,66c-16.9,0-24.2,8.8-24.2,29.7s7.3,29.6,24.2,29.6h16.7c16.7,0,24.2-8.6,24.2-29.6s-7.5-29.7-24.2-29.7h-16.7Z"/>
    <path class="st1" d="M691.9,5.3v97.4c0,27.9-12.5,41.5-35.6,41.5h-26.8c-25.9,0-42-15.8-42-48.4s16.2-48.4,42-48.4h42.8V5.3h19.6,0ZM672.2,101.8v-35.8h-40.9c-16.7,0-24.2,8.8-24.2,29.7s7.5,29.6,24.2,29.6h19.3c15.6,0,21.7-7,21.7-23.5h0Z"/>
    <path class="st1" d="M781.6,47.3c24.2,0,33.8,13.6,33.8,31.9v45.5c0,13.9-3.7,19.4-20,19.4h-45.3c-22.9,0-32.5-11.2-32.5-29.6s8.8-27.9,32.7-27.9h46.1v-7.3c0-7.5-4.2-13.4-14.9-13.4h-58v-18.7h58.2,0ZM796.3,120.4v-18.2h-45.7c-10.3,0-13.9,4.2-13.9,11.4s3.8,11.7,13.6,11.7h40.7c3.8,0,5.3-1.5,5.3-4.9h0Z"/>
  </g>
</svg>